<?xml version="1.0" standalone="no"?>
<!DOCTYPE svg PUBLIC "-//W3C//DTD SVG 20010904//EN"
 "http://www.w3.org/TR/2001/REC-SVG-20010904/DTD/svg10.dtd">
<svg version="1.0" xmlns="http://www.w3.org/2000/svg"
 width="400.000000pt" height="400.000000pt" viewBox="0 0 400.000000 400.000000"
 preserveAspectRatio="xMidYMid meet">
<metadata>
Created by potrace 1.11, written by Peter Selinger 2001-2013
</metadata>
<g transform="translate(0.000000,400.000000) scale(0.100000,-0.100000)"
fill="#000000" stroke="none">
<path d="M1662 3848 c-70 -7 -142 -32 -142 -48 0 -5 -17 -19 -37 -31 -146 -90
-303 -259 -343 -371 -8 -20 -18 -34 -23 -31 -6 3 -7 1 -3 -5 4 -6 -6 -46 -22
-89 -16 -43 -33 -91 -39 -108 -6 -16 -14 -39 -18 -50 -6 -16 -5 -17 4 -5 9 12
10 6 5 -25 -4 -22 -11 -48 -16 -58 -8 -15 -17 -100 -32 -312 -1 -16 -7 -40
-14 -52 -17 -30 -15 -231 2 -313 7 -36 20 -87 29 -115 9 -29 20 -117 25 -208
9 -146 19 -193 39 -173 4 4 1 12 -7 17 -11 8 -12 12 -2 16 6 2 10 8 7 13 -10
15 40 437 67 570 11 58 24 155 28 215 4 61 13 126 20 145 15 39 125 210 160
250 12 14 27 32 34 41 18 26 104 73 171 93 33 11 74 25 90 32 27 11 100 27
330 70 44 9 123 16 175 16 119 1 324 -16 368 -30 79 -26 165 -125 254 -293 46
-85 77 -197 94 -339 4 -30 14 -63 22 -73 13 -15 14 -20 3 -26 -10 -7 -10 -23
2 -87 9 -44 18 -101 22 -129 10 -86 55 -349 64 -380 20 -70 25 61 9 220 -2 17
2 41 9 55 6 14 19 51 27 82 8 32 24 68 36 80 19 21 21 30 15 93 -3 39 -15 112
-26 163 -11 51 -17 97 -15 101 9 14 -35 89 -60 106 -14 9 -23 23 -20 30 3 8
-11 28 -31 45 -34 31 -35 33 -24 70 23 79 9 140 -39 165 -16 8 -42 34 -56 57
-84 132 -272 297 -424 371 -14 6 -52 29 -85 50 -32 21 -65 35 -72 33 -7 -3
-13 -1 -13 4 0 6 -8 10 -17 10 -9 0 -24 6 -32 14 -28 25 -195 95 -262 110 -87
19 -151 23 -237 14z m1218 -698 c0 -5 -2 -10 -4 -10 -3 0 -8 5 -11 10 -3 6 -1
10 4 10 6 0 11 -4 11 -10z m4 -54 c-1 -12 -3 -23 -3 -26 -2 -8 -21 24 -21 36
0 6 6 11 13 11 8 0 12 -9 11 -21z m139 -329 c-3 -5 -12 5 -19 23 -19 45 -17
50 5 16 11 -17 17 -34 14 -39z"/>
<path d="M1021 3074 c0 -11 3 -14 6 -6 3 7 2 16 -1 19 -3 4 -6 -2 -5 -13z"/>
<path d="M2420 2496 c0 -29 66 -51 107 -35 26 10 27 11 9 21 -28 15 -74 19
-81 7 -5 -7 -12 -6 -21 2 -8 6 -14 8 -14 5z"/>
<path d="M1538 2432 c-61 -33 -47 -44 49 -37 42 4 74 2 77 -4 4 -6 12 -8 20
-5 7 3 25 0 41 -6 16 -6 31 -7 34 -3 3 4 13 8 21 8 33 0 21 34 -19 54 -61 31
-161 28 -223 -7z"/>
<path d="M1710 2349 c0 -4 -26 -13 -57 -20 -60 -13 -92 -29 -57 -29 11 0 29
-6 39 -14 16 -12 9 -14 -62 -18 -52 -3 -88 -10 -104 -21 -13 -9 -33 -17 -44
-17 -13 0 -27 -14 -42 -40 l-21 -40 24 0 c14 0 41 -7 61 -15 19 -8 48 -15 64
-15 15 0 30 -4 34 -10 3 -5 12 -7 19 -4 8 3 17 0 21 -5 3 -6 10 -9 15 -6 5 3
26 -6 47 -19 43 -29 114 -37 151 -17 27 15 29 37 2 44 -24 6 -17 33 11 42 23
8 24 18 4 35 -22 18 -18 32 6 25 20 -7 20 -6 4 19 -10 14 -13 26 -7 26 6 0 13
-6 16 -12 3 -7 4 1 1 17 -3 17 -15 37 -25 47 -13 10 -16 18 -8 20 6 2 9 12 5
21 -4 12 -18 16 -52 15 -25 0 -45 -4 -45 -9z m-20 -150 c0 -6 -4 -7 -10 -4 -5
3 -10 11 -10 16 0 6 5 7 10 4 6 -3 10 -11 10 -16z m-180 -62 c0 -10 -57 20
-66 34 -4 7 1 18 12 26 16 12 20 10 36 -19 9 -18 17 -36 18 -41z"/>
<path d="M2363 2345 c-36 -15 -65 -62 -57 -92 3 -11 -1 -25 -10 -32 -22 -19
-20 -38 5 -46 11 -4 18 -10 14 -13 -3 -4 15 -12 42 -19 51 -13 68 -9 41 11
-14 11 -4 12 57 8 69 -4 75 -3 99 21 14 15 26 35 26 47 0 23 18 26 45 6 19
-14 19 -15 0 -37 -20 -22 -20 -22 0 -14 11 5 33 8 48 8 37 0 30 15 -29 59 -30
23 -65 40 -91 44 -23 3 -50 12 -59 19 -15 11 -13 13 19 19 20 4 48 4 64 1 23
-4 22 -3 -7 9 -45 19 -166 19 -207 1z m183 -122 c-11 -11 -17 4 -9 23 7 18 8
18 11 1 2 -10 1 -21 -2 -24z m-143 -32 c-5 -7 -33 21 -33 34 0 25 25 22 31 -4
3 -14 4 -28 2 -30z"/>
<path d="M1445 2279 c-32 -9 -115 -74 -115 -90 0 -19 26 -8 45 20 18 27 83 64
130 74 15 4 14 5 -5 5 -14 0 -39 -4 -55 -9z"/>
<path d="M2680 2281 c0 -5 7 -15 17 -22 15 -13 15 -12 4 9 -12 23 -21 28 -21
13z"/>
<path d="M1102 1700 c0 -19 2 -27 5 -17 2 9 2 25 0 35 -3 9 -5 1 -5 -18z"/>
<path d="M2932 1638 c2 -22 0 -34 -6 -31 -5 4 -7 -1 -3 -11 4 -10 7 -25 7 -34
1 -15 2 -15 11 1 15 25 14 86 -1 101 -9 8 -11 3 -8 -26z"/>
<path d="M1816 1639 c-13 -59 -10 -83 9 -75 8 3 15 1 15 -5 0 -6 7 -3 16 5 8
9 26 16 39 16 13 0 30 7 39 15 8 8 22 15 32 15 13 0 11 5 -10 21 -16 12 -48
23 -80 26 -52 5 -55 4 -60 -18z"/>
<path d="M1127 1644 c-12 -12 -8 -42 8 -58 9 -9 11 -17 5 -21 -11 -7 -13 -47
-4 -94 4 -17 11 -28 17 -24 6 4 8 -3 4 -18 -3 -13 -2 -33 3 -44 4 -11 3 -28
-2 -37 -6 -14 -5 -18 7 -18 9 0 15 -9 15 -24 0 -17 59 -148 74 -163 1 -1 2 13
3 32 1 26 -4 38 -19 46 -17 9 -20 18 -15 55 2 24 1 47 -4 50 -5 3 -9 30 -9 60
0 30 -3 54 -7 54 -5 0 -9 12 -10 26 0 15 -6 36 -12 48 -5 11 -18 47 -28 79
-10 32 -22 55 -26 51z"/>
<path d="M2203 1640 c-37 -15 -27 -28 25 -32 51 -5 68 2 59 26 -7 18 -48 20
-84 6z"/>
<path d="M2910 1536 c0 -8 -2 -20 -5 -28 -3 -7 0 -22 8 -31 11 -16 13 -14 14
22 1 22 -2 43 -8 46 -5 4 -9 0 -9 -9z"/>
<path d="M1881 1526 c-7 -8 -23 -17 -36 -20 -14 -4 -25 -11 -25 -17 0 -6 -4
-7 -10 -4 -5 3 -19 1 -30 -5 -12 -6 -20 -7 -20 -1 0 5 -14 3 -30 -6 -17 -8
-28 -18 -26 -22 3 -4 -17 -17 -44 -29 -27 -12 -58 -35 -68 -50 -54 -77 -20
-135 91 -157 10 -2 47 -16 83 -30 76 -30 161 -37 178 -13 15 21 84 32 102 17
17 -14 80 -6 103 14 23 21 158 44 173 29 11 -11 92 8 111 27 18 18 -166 14
-224 -5 -38 -13 -53 -14 -62 -5 -6 6 -21 11 -33 11 -13 0 -25 4 -28 9 -3 5
-17 9 -32 9 -14 0 -35 4 -47 10 -12 6 -30 13 -39 16 -10 3 -18 15 -18 26 0 28
-16 25 -32 -7 -13 -27 -57 -43 -59 -20 0 6 -4 3 -9 -8 -8 -20 -8 -20 -16 -1
-5 14 -2 23 14 34 12 8 22 21 22 28 0 8 4 14 9 14 5 0 14 15 21 33 6 17 19 47
28 66 13 26 14 35 4 39 -6 2 -12 10 -12 18 0 18 -24 18 -39 0z m-181 -141 c-7
-9 -15 -13 -17 -11 -7 7 7 26 19 26 6 0 6 -6 -2 -15z m-50 -59 c0 -7 -8 -20
-17 -27 -15 -12 -16 -12 -10 4 4 10 7 23 7 28 0 5 5 9 10 9 6 0 10 -6 10 -14z
m27 0 c-9 -23 5 -27 20 -6 20 29 35 25 27 -7 -7 -25 -6 -27 9 -15 9 8 21 11
27 7 5 -3 10 0 10 7 0 7 11 14 25 14 20 2 25 -3 25 -23 0 -24 -2 -25 -44 -21
-25 3 -49 1 -54 -4 -6 -6 -18 -5 -33 3 -13 7 -28 12 -33 11 -5 -2 -6 4 -2 13
3 9 6 21 6 26 0 5 5 9 11 9 6 0 9 -6 6 -14z"/>
<path d="M2080 1488 c0 -16 -5 -20 -27 -17 -10 1 -21 -31 -22 -61 -1 -20 1
-22 9 -10 8 12 10 9 10 -13 0 -16 4 -26 10 -22 6 3 10 2 10 -3 0 -16 33 -24
41 -10 4 6 -1 35 -12 62 -22 59 -22 59 -9 51 13 -8 13 5 0 25 -8 13 -10 12
-10 -2z"/>
<path d="M2119 1494 c-3 -25 4 -61 17 -78 12 -17 14 -18 14 -4 0 9 -5 20 -10
23 -7 5 -8 11 -1 18 6 8 5 19 -5 31 -8 11 -14 16 -15 10z"/>
<path d="M2205 1483 c-12 -34 35 -140 56 -127 5 3 9 0 9 -5 0 -8 7 -7 19 1 11
7 17 16 14 21 -3 5 -1 12 4 16 6 3 13 16 17 28 6 18 2 24 -18 29 -17 4 -26 13
-26 25 0 10 -6 20 -12 20 -7 1 -23 3 -35 4 -12 1 -24 -4 -28 -12z"/>
<path d="M1946 1470 c-5 -14 -20 -45 -34 -70 -14 -25 -24 -45 -22 -45 2 0 -2
-10 -9 -22 -7 -13 -8 -23 -2 -23 5 0 13 10 16 23 4 12 20 48 37 80 16 32 28
63 25 70 -2 7 -7 1 -11 -13z"/>
<path d="M2162 1450 c-2 -48 14 -72 20 -32 2 17 1 29 -3 26 -4 -2 -10 6 -12
18 -3 16 -5 11 -5 -12z"/>
<path d="M1960 1438 c0 -3 -7 -22 -15 -42 -8 -20 -11 -36 -6 -36 11 0 34 71
26 79 -3 2 -5 2 -5 -1z"/>
<path d="M1557 1392 c-10 -10 -14 -22 -10 -25 3 -4 13 2 21 14 18 26 10 35
-11 11z"/>
<path d="M2320 1375 c0 -8 9 -15 20 -15 13 0 18 5 14 15 -4 8 -12 15 -20 15
-8 0 -14 -7 -14 -15z"/>
<path d="M2886 1365 c-9 -26 -7 -32 5 -12 6 10 9 21 6 23 -2 3 -7 -2 -11 -11z"/>
<path d="M1298 1324 c-5 -4 -8 -19 -8 -34 0 -14 -5 -31 -10 -36 -11 -11 8
-104 21 -104 3 0 7 -11 7 -25 0 -33 -6 -32 -23 8 l-14 32 -1 -28 c0 -16 14
-54 31 -85 36 -67 117 -182 127 -182 4 0 16 -19 27 -43 11 -23 26 -48 32 -55
7 -7 13 -20 13 -27 0 -9 6 -12 15 -9 9 4 18 -3 24 -18 12 -31 41 -57 41 -37 0
9 5 7 11 -5 6 -10 20 -27 30 -37 11 -11 19 -23 19 -29 0 -5 5 -10 11 -10 7 0
20 -10 30 -21 11 -13 25 -19 34 -15 9 3 18 0 21 -8 3 -8 19 -20 35 -26 16 -7
29 -16 29 -20 0 -8 74 -34 93 -32 54 5 94 5 104 -1 21 -13 164 -6 228 12 21 6
42 8 47 5 4 -3 8 2 8 10 0 9 5 16 11 16 5 0 7 -4 4 -10 -3 -5 -2 -10 4 -10 5
0 14 7 19 17 6 9 16 14 25 10 10 -4 23 3 36 18 20 26 37 34 26 13 -4 -7 1 -4
9 6 18 22 22 51 6 41 -7 -4 -9 3 -4 22 l6 28 -26 -30 c-24 -29 -25 -29 -26 -7
0 12 -4 22 -8 22 -11 0 -38 -30 -45 -50 -4 -12 -6 -12 -6 2 -1 23 -30 12 -41
-16 -7 -17 -9 -18 -9 -3 -1 11 -9 17 -25 17 -15 0 -26 7 -29 18 -3 9 -5 3 -6
-14 0 -16 -7 -36 -13 -42 -10 -10 -17 -3 -35 35 -13 26 -20 37 -17 23 5 -23 4
-24 -10 -7 -16 21 -29 8 -20 -20 5 -15 4 -15 -5 -3 -6 8 -8 24 -4 35 5 17 4
18 -9 8 -8 -7 -18 -9 -23 -5 -4 4 -6 -3 -3 -14 4 -17 2 -20 -12 -17 -12 3 -20
-2 -25 -16 -7 -23 -20 -27 -31 -9 -5 8 -10 6 -19 -5 -9 -12 -11 -6 -10 34 1
27 -3 49 -8 49 -5 0 -6 -15 -3 -34 4 -20 2 -37 -4 -41 -5 -3 -10 0 -11 7 0 7
-4 4 -9 -7 -7 -16 -9 -17 -9 -3 -2 32 -23 67 -38 61 -11 -4 -13 0 -7 21 8 35
-12 34 -21 -1 l-8 -28 -9 33 c-5 17 -13 32 -18 32 -5 0 -7 -6 -4 -13 3 -8 -2
-20 -11 -27 -13 -11 -15 -9 -15 16 0 26 -1 26 -13 9 -15 -20 -21 -15 -31 30
-9 36 -25 57 -38 49 -19 -12 -67 18 -77 48 -6 16 -15 27 -21 23 -5 -3 -10 -1
-10 5 0 7 -8 9 -21 5 -13 -4 -27 0 -40 11 -10 9 -19 13 -19 8 0 -10 -24 37
-39 79 -12 31 -27 35 -34 10 -5 -18 -11 52 -7 72 5 26 1 77 -8 88 -5 6 -13 31
-17 54 -3 23 -17 53 -30 67 -14 15 -22 32 -19 40 4 10 -3 13 -25 10 -28 -3
-30 -1 -33 32 -2 20 -6 32 -10 28z m-3 -84 c3 -5 1 -10 -4 -10 -6 0 -11 5 -11
10 0 6 2 10 4 10 3 0 8 -4 11 -10z m25 -45 c-8 -9 -8 -15 -2 -15 11 0 38 -98
29 -107 -3 -3 -13 20 -22 51 -9 30 -21 58 -26 61 -5 4 -9 14 -9 23 0 15 2 15
10 2 8 -12 11 -11 17 10 6 20 8 21 11 7 2 -10 -2 -24 -8 -32z m88 -235 c0 -22
-1 -22 -8 5 -4 17 -8 39 -8 50 0 16 2 15 8 -5 4 -14 8 -36 8 -50z m582 -434
c0 -3 -4 -8 -10 -11 -5 -3 -10 -1 -10 4 0 6 5 11 10 11 6 0 10 -2 10 -4z"/>
<path d="M1260 1278 c0 -19 2 -20 10 -8 13 19 13 30 0 30 -5 0 -10 -10 -10
-22z"/>
<path d="M2463 1283 c-24 -9 -13 -24 15 -21 15 2 26 8 25 13 -2 12 -23 16 -40
8z"/>
<path d="M2807 1273 c-4 -3 -7 -11 -7 -17 0 -6 5 -5 12 2 6 6 9 14 7 17 -3 3
-9 2 -12 -2z"/>
<path d="M2840 1239 c0 -30 -28 -102 -31 -79 -1 14 -9 -9 -24 -70 l-6 -25 11
25 c6 13 17 31 24 40 25 29 47 100 36 118 -8 14 -9 13 -10 -9z"/>
<path d="M2761 1237 c-6 -6 -11 -26 -11 -43 0 -18 -5 -36 -10 -39 -6 -4 -10
-12 -9 -18 4 -32 -1 -37 -20 -25 -11 7 -17 18 -13 27 4 12 7 11 13 -5 5 -13 8
-14 8 -4 0 8 -3 21 -8 28 -9 15 -25 -19 -36 -73 l-6 -30 15 25 c11 18 15 21
16 8 0 -9 -7 -23 -15 -32 -8 -8 -15 -20 -15 -26 0 -6 -12 -45 -26 -87 -20 -57
-37 -85 -70 -118 -24 -24 -44 -48 -44 -53 0 -9 -26 -31 -59 -51 -8 -5 -14 -23
-13 -40 0 -21 -4 -31 -14 -31 -8 0 -14 -6 -14 -14 0 -29 17 -25 45 9 15 19 31
32 36 29 5 -3 9 -1 9 4 0 6 15 25 33 44 18 18 44 49 57 68 13 19 27 37 31 40
22 16 69 127 68 159 -1 23 -3 28 -6 14 -4 -23 -23 -33 -23 -12 0 20 43 104 47
92 3 -7 10 -13 16 -13 5 0 7 3 4 6 -4 4 3 15 15 25 11 11 17 19 11 19 -13 0 3
101 18 110 7 5 6 9 -4 13 -8 3 -20 0 -26 -6z"/>
<path d="M2755 1056 c-14 -15 -35 -64 -35 -79 0 -7 12 10 25 38 25 51 27 62
10 41z"/>
<path d="M2008 1022 c-3 -11 -2 -25 2 -32 5 -8 9 -4 13 11 4 13 3 27 -2 32 -5
5 -11 0 -13 -11z"/>
<path d="M2092 1010 c-6 -11 -12 -28 -11 -37 0 -14 2 -15 6 -3 4 8 13 20 22
27 11 8 13 15 6 22 -7 7 -14 4 -23 -9z"/>
<path d="M1954 1004 c3 -9 6 -18 6 -20 0 -2 5 -4 10 -4 6 0 10 9 10 20 0 12
-7 20 -16 20 -11 0 -14 -5 -10 -16z"/>
<path d="M2040 969 c-7 -11 -10 -23 -7 -25 2 -2 9 7 15 21 14 30 7 33 -8 4z"/>
<path d="M2756 731 c22 -41 26 -66 31 -162 4 -97 1 -131 -21 -232 -13 -65 -45
-167 -69 -227 l-45 -110 674 0 674 0 0 205 c0 239 20 212 -160 219 -146 6
-211 15 -230 30 -8 7 -42 22 -75 34 -64 22 -306 82 -334 82 -9 0 -39 15 -66
34 -28 18 -61 36 -75 40 -84 23 -111 35 -168 73 -35 24 -70 43 -78 43 -19 0
-18 -24 1 -40 9 -7 14 -19 11 -25 -2 -7 0 -18 6 -26 8 -11 8 -9 4 6 -6 20 -6
20 9 1 17 -22 20 -40 5 -31 -5 3 -10 2 -10 -3 0 -6 7 -12 15 -16 18 -7 16 -76
-2 -76 -7 0 -10 -7 -7 -15 4 -8 2 -15 -4 -15 -10 0 -26 67 -21 86 8 26 -61
174 -81 174 -5 0 2 -22 16 -49z m99 -272 c2 -23 8 -46 14 -52 6 -6 10 -31 10
-56 -1 -26 -3 -37 -6 -26 -2 11 -13 51 -24 89 -11 37 -18 75 -14 84 9 23 17 8
20 -39z m-9 -135 c0 -20 6 -39 14 -44 11 -7 9 -9 -8 -7 -19 1 -22 7 -22 44 0
24 4 43 8 43 4 0 8 -16 8 -36z m-29 -126 c-3 -8 -6 -5 -6 6 -1 11 2 17 5 13 3
-3 4 -12 1 -19z"/>
<path d="M1235 723 c-27 -8 -59 -20 -71 -26 -34 -19 -117 -74 -146 -97 -15
-11 -73 -44 -130 -74 -57 -29 -152 -82 -213 -118 -200 -118 -574 -308 -652
-332 -18 -6 -23 -15 -23 -42 l0 -34 790 0 790 0 -12 28 c-6 15 -23 38 -37 52
-26 25 -67 77 -109 139 -13 18 -29 39 -35 46 -24 24 -94 125 -107 154 -6 13
-21 38 -33 55 -42 58 -52 86 -48 138 1 9 21 38 46 65 37 39 56 67 43 62 -2 0
-25 -8 -53 -16z"/>
<path d="M1761 724 c0 -11 3 -14 6 -6 3 7 2 16 -1 19 -3 4 -6 -2 -5 -13z"/>
<path d="M2380 654 c0 -8 5 -12 10 -9 6 3 10 10 10 16 0 5 -4 9 -10 9 -5 0
-10 -7 -10 -16z"/>
<path d="M2237 637 c-11 -29 -9 -43 4 -30 6 6 9 19 7 29 -3 18 -4 18 -11 1z"/>
<path d="M1921 604 c0 -11 3 -14 6 -6 3 7 2 16 -1 19 -3 4 -6 -2 -5 -13z"/>
<path d="M2007 601 c-4 -17 -3 -21 5 -13 5 5 8 16 6 23 -3 8 -7 3 -11 -10z"/>
<path d="M2842 595 c0 -16 2 -22 5 -12 2 9 2 23 0 30 -3 6 -5 -1 -5 -18z"/>
<path d="M2172 585 c0 -16 2 -22 5 -12 2 9 2 23 0 30 -3 6 -5 -1 -5 -18z"/>
</g>
</svg>
